<svg width="48" height="48" viewBox="0 0 48 48" fill="none" xmlns="http://www.w3.org/2000/svg">
<path d="M43.1714 0H28.6281C26.5549 0 24.8682 1.6864 24.8682 3.75989V17.2679C24.8682 19.3411 26.5549 21.0275 28.6281 21.0275H43.1714C45.2445 21.0275 46.9313 19.3411 46.9313 17.2679V3.75989C46.9313 1.6864 45.2445 0 43.1714 0V0ZM45.0563 17.2676C45.0563 18.3069 44.2107 19.1525 43.1714 19.1525H28.6281C27.5887 19.1525 26.7432 18.3069 26.7432 17.2676V3.75989C26.7432 2.72058 27.5887 1.875 28.6281 1.875H43.1714C44.2107 1.875 45.0563 2.72058 45.0563 3.75989V17.2676Z" fill="#FFBB2E"/>
<path d="M35.8997 3.88293C32.2434 3.88293 29.269 6.85767 29.269 10.5139C29.269 14.1702 32.2434 17.1445 35.8997 17.1445C39.5559 17.1445 42.5306 14.1702 42.5306 10.5139C42.5306 6.85767 39.5559 3.88293 35.8997 3.88293V3.88293ZM35.8997 15.2695C33.2776 15.2695 31.144 13.136 31.144 10.5135C31.144 7.89148 33.2776 5.75793 35.8997 5.75793C38.5221 5.75793 40.6556 7.89148 40.6556 10.5135C40.6556 13.136 38.5221 15.2695 35.8997 15.2695V15.2695Z" fill="#FFBB2E"/>
<path d="M33.7197 8.61292C33.2019 8.61292 32.7822 9.03259 32.7822 9.55042V11.4771C32.7822 11.9949 33.2019 12.4146 33.7197 12.4146C34.2375 12.4146 34.6572 11.9949 34.6572 11.4771V9.55042C34.6572 9.03259 34.2375 8.61292 33.7197 8.61292Z" fill="#FFBB2E"/>
<path d="M38.0801 8.61292C37.5623 8.61292 37.1426 9.03259 37.1426 9.55042V11.4771C37.1426 11.9949 37.5623 12.4146 38.0801 12.4146C38.5979 12.4146 39.0176 11.9949 39.0176 11.4771V9.55042C39.0176 9.03259 38.5979 8.61292 38.0801 8.61292Z" fill="#FFBB2E"/>
<path d="M40.0613 46.125H28.6659C27.1769 46.125 25.9655 44.9136 25.9655 43.4246V35.8286C25.9655 33.6152 24.1648 31.8146 21.9514 31.8146C19.738 31.8146 17.9374 33.6152 17.9374 35.8286V43.4004C17.9374 44.9026 16.715 46.125 15.2128 46.125C13.7102 46.125 12.4878 44.9026 12.4878 43.4004V35.5825C13.6564 35.5265 14.5895 34.5582 14.5895 33.3761V32.38H14.6349C17.4899 32.38 19.8124 30.0575 19.8124 27.2025V21.4113H20.9594C21.5197 21.4113 21.9756 20.9553 21.9756 20.3947V18.6138C21.9756 17.1779 20.8074 16.0096 19.3715 16.0096H17.5818V9.08752C17.5818 7.74573 16.4901 6.65405 15.1483 6.65405C13.8065 6.65405 12.7145 7.74573 12.7145 9.08752V16.0096H10.3861V9.08752C10.3861 7.74573 9.29443 6.65405 7.95227 6.65405C6.61047 6.65405 5.5188 7.74573 5.5188 9.08752V16.0096H3.72913C2.29321 16.0096 1.125 17.1779 1.125 18.6138V20.3947C1.125 20.9553 1.58093 21.4113 2.1416 21.4113H3.28821V27.2025C3.28821 30.0575 5.61108 32.38 8.4657 32.38H8.51111V33.3761C8.51111 34.5582 9.44458 35.5265 10.6128 35.5825V43.4004C10.6128 45.9368 12.6764 48 15.2128 48C17.7488 48 19.8124 45.9364 19.8124 43.4004V35.8286C19.8124 34.649 20.7719 33.6896 21.9514 33.6896C23.131 33.6896 24.0905 34.649 24.0905 35.8286V43.4246C24.0905 45.9474 26.1431 48 28.6659 48H40.0613C40.5791 48 40.9988 47.5803 40.9988 47.0625C40.9988 46.5447 40.5791 46.125 40.0613 46.125V46.125ZM14.5895 9.08752C14.5895 8.77954 14.8403 8.52905 15.1483 8.52905C15.4563 8.52905 15.7068 8.77954 15.7068 9.08752V16.0096H14.5895V9.08752ZM7.3938 9.08752C7.3938 8.77954 7.64429 8.52905 7.95227 8.52905C8.26025 8.52905 8.51111 8.77954 8.51111 9.08752V16.0096H7.3938V9.08752ZM5.16321 27.2025V21.4113H10.1843C10.7021 21.4113 11.1218 20.9912 11.1218 20.4738C11.1218 19.9559 10.7021 19.5363 10.1843 19.5363H3V18.6138C3 18.2117 3.32703 17.8846 3.72913 17.8846H19.3718C19.7736 17.8846 20.1006 18.2117 20.1006 18.6138V19.5363H17.6843C17.1665 19.5363 16.7468 19.9559 16.7468 20.4738C16.7468 20.9912 17.1665 21.4113 17.6843 21.4113H17.9374V27.2025C17.9374 29.0237 16.4561 30.505 14.6349 30.505H8.4657C6.6449 30.505 5.16321 29.0237 5.16321 27.2025ZM10.3861 33.3761V32.38H12.7145V33.3761C12.7145 33.5603 12.5647 33.7101 12.3809 33.7101H10.7197C10.5359 33.7097 10.3861 33.5603 10.3861 33.3761Z" fill="#FFBB2E"/>
<path d="M13.9343 21.4113H13.9365C14.4543 21.4113 14.8729 20.9912 14.8729 20.4738C14.8729 19.9559 14.4521 19.5363 13.9343 19.5363C13.4165 19.5363 12.9968 19.9559 12.9968 20.4738C12.9968 20.9912 13.4165 21.4113 13.9343 21.4113Z" fill="#FFBB2E"/>
</svg>
