<svg width="48" height="48" viewBox="0 0 48 48" fill="none" xmlns="http://www.w3.org/2000/svg">
<path d="M47.6411 42.7262C46.3517 37.7366 41.8458 34.2517 36.6841 34.2517C36.2791 34.2517 35.8762 34.273 35.4774 34.3154L38.1215 28.908L38.1255 28.9102C38.2581 28.975 38.3979 29.0054 38.5364 29.0054C38.8832 29.0054 39.2168 28.812 39.3794 28.4791C39.6064 28.0141 39.4135 27.4526 38.9484 27.2256L35.4188 25.5011L36.4303 23.4324C36.5398 23.209 36.5555 22.9512 36.475 22.7161C36.394 22.481 36.2234 22.2872 35.9996 22.1781L35.7751 22.0686L42.2274 8.87001C42.3838 8.86818 42.5413 8.86012 42.6991 8.84474C44.1881 8.70045 45.5215 7.77613 46.1785 6.43251L46.2924 6.19923C46.3499 6.21022 46.4077 6.21534 46.4648 6.21534C46.812 6.21534 47.1456 6.02198 47.3079 5.6891C47.5353 5.22401 47.3423 4.66261 46.8772 4.43519L38.5686 0.376476C38.1031 0.149425 37.5417 0.342418 37.3147 0.807506C37.1254 1.19496 37.2275 1.64906 37.5359 1.92152L37.4224 2.15406C36.765 3.49806 36.8544 5.11744 37.6556 6.38087C37.7399 6.51344 37.8289 6.64125 37.9226 6.76466L31.4692 19.9651L31.2444 19.8549C30.7793 19.6278 30.2179 19.8204 29.9905 20.2855L28.9786 22.355L25.448 20.6305C24.9825 20.4035 24.4215 20.5964 24.1941 21.0615C23.967 21.5266 24.1597 22.088 24.6251 22.3154L24.6281 22.3169L20.9843 29.7686C19.0646 30.0308 17.2222 30.6991 15.5753 31.7391C13.6505 32.955 12.0637 34.6282 10.9548 36.605C10.6864 36.5834 10.4191 36.5728 10.1543 36.5728C6.15674 36.5728 2.5177 38.9297 0.882935 42.5772C0.296997 43.8849 0 45.2798 0 46.7227C0 46.9713 0.098877 47.2097 0.274658 47.3855C0.450439 47.5613 0.688843 47.6602 0.9375 47.6602H46.9962C47.4738 47.6602 47.8751 47.3013 47.9279 46.8267C47.9758 46.3971 48 45.9719 48 45.5621C48 44.6019 47.8792 43.648 47.6411 42.7262V42.7262ZM44.4939 5.60853C44.1207 6.37135 43.3638 6.89613 42.5182 6.97816C41.2035 7.10597 39.9467 6.49183 39.2391 5.37672C38.7843 4.65968 38.7334 3.74049 39.1066 2.97767L39.2058 2.77479L44.5928 5.40638L44.4939 5.60853ZM39.3684 8.07679C39.6647 8.25953 39.9781 8.41297 40.3041 8.53456L34.0906 21.2454L33.1542 20.788L39.3684 8.07679ZM31.2634 21.9511L34.3341 23.4511L33.7339 24.6782L30.6636 23.1782L31.2634 21.9511ZM36.4369 28.0851L33.2867 34.5267C30.7723 31.5271 27.0564 29.7312 23.1317 29.6459L26.3134 23.1398L36.4369 28.0851ZM46.1221 45.7852H1.927C1.99951 45.1392 2.14746 44.5082 2.36938 43.8981H9.65698C10.1744 43.8981 10.5945 43.4784 10.5945 42.9606C10.5945 42.4428 10.1744 42.0231 9.65698 42.0231H3.33838C5.08594 39.497 8.15442 38.0731 11.3507 38.5353C11.751 38.5928 12.1428 38.3877 12.3234 38.0259C14.3273 34.0119 18.3563 31.518 22.8387 31.518C26.5873 31.518 30.1428 33.3329 32.35 36.3724C32.5964 36.7116 33.0377 36.846 33.4314 36.7017C33.6387 36.6259 33.8474 36.5574 34.0587 36.4962C34.0657 36.4944 34.073 36.4922 34.08 36.4904C34.9226 36.249 35.7957 36.1267 36.6841 36.1267C40.574 36.1267 44.0171 38.4979 45.4398 42.0234H21.8101C21.2922 42.0234 20.8726 42.4431 20.8726 42.9609C20.8726 43.4784 21.2922 43.8984 21.8101 43.8984H45.9785C46.0759 44.4452 46.125 45.0022 46.125 45.5621C46.125 45.6358 46.1239 45.7101 46.1221 45.7852V45.7852Z" fill="#FFBB2E"/>
<path d="M30.114 38.9319C29.8236 38.9319 29.538 38.7979 29.3545 38.5452C27.8413 36.4614 25.4056 35.2174 22.8389 35.2174C22.321 35.2174 21.9014 34.7977 21.9014 34.2799C21.9014 33.7621 22.321 33.3424 22.8389 33.3424C26.0044 33.3424 29.007 34.8754 30.8717 37.4432C31.176 37.8625 31.083 38.4485 30.6641 38.7528C30.4974 38.8737 30.3048 38.9319 30.114 38.9319V38.9319Z" fill="#FFBB2E"/>
<path d="M18.6328 43.8985C18.572 43.8985 18.5101 43.8919 18.4501 43.8794C18.39 43.8673 18.3311 43.8494 18.2747 43.8259C18.2175 43.8025 18.163 43.7736 18.1124 43.7399C18.0608 43.7062 18.0132 43.6666 17.97 43.6238C17.7957 43.4491 17.6953 43.2074 17.6953 42.9609C17.6953 42.8998 17.7019 42.8379 17.714 42.7771C17.7261 42.7178 17.744 42.6588 17.7675 42.6017C17.7909 42.5453 17.8198 42.4911 17.8539 42.4406C17.8876 42.3889 17.9268 42.3409 17.97 42.2977C18.0132 42.2549 18.0608 42.2153 18.1124 42.1805C18.163 42.1469 18.2175 42.1179 18.2747 42.0945C18.3311 42.0718 18.39 42.0531 18.4501 42.041C18.7548 41.9802 19.0781 42.0806 19.2957 42.2977C19.3389 42.3409 19.3781 42.3889 19.4117 42.4406C19.4458 42.4911 19.4747 42.5453 19.4982 42.6017C19.5216 42.6588 19.5403 42.7178 19.5524 42.7771C19.5648 42.8379 19.5703 42.8998 19.5703 42.9609C19.5703 43.2074 19.47 43.4491 19.2957 43.6238C19.1213 43.7981 18.8793 43.8985 18.6328 43.8985V43.8985Z" fill="#FFBB2E"/>
</svg>
