<svg width="25" height="24" viewBox="0 0 25 24" fill="none" xmlns="http://www.w3.org/2000/svg">
<path fill-rule="evenodd" clip-rule="evenodd" d="M12.0337 3C7.06313 3 3.03369 7.02944 3.03369 12C3.03369 16.9706 7.06313 21 12.0337 21C17.0043 21 21.0337 16.9706 21.0337 12C21.0337 7.02944 17.0043 3 12.0337 3ZM1.03369 12C1.03369 5.92487 5.95856 1 12.0337 1C18.1088 1 23.0337 5.92487 23.0337 12C23.0337 18.0751 18.1088 23 12.0337 23C5.95856 23 1.03369 18.0751 1.03369 12Z" fill="#FF7067"/>
<path fill-rule="evenodd" clip-rule="evenodd" d="M15.7408 8.29289C16.1313 8.68342 16.1313 9.31658 15.7408 9.70711L9.7408 15.7071C9.35027 16.0976 8.71711 16.0976 8.32658 15.7071C7.93606 15.3166 7.93606 14.6834 8.32658 14.2929L14.3266 8.29289C14.7171 7.90237 15.3503 7.90237 15.7408 8.29289Z" fill="#FF7067"/>
<path fill-rule="evenodd" clip-rule="evenodd" d="M8.32658 8.29289C8.71711 7.90237 9.35027 7.90237 9.7408 8.29289L15.7408 14.2929C16.1313 14.6834 16.1313 15.3166 15.7408 15.7071C15.3503 16.0976 14.7171 16.0976 14.3266 15.7071L8.32658 9.70711C7.93606 9.31658 7.93606 8.68342 8.32658 8.29289Z" fill="#FF7067"/>
</svg>
