<svg width="50" height="50" viewBox="0 0 50 50" fill="none" xmlns="http://www.w3.org/2000/svg">
<path d="M25 49C38.2548 49 49 38.2548 49 25C49 11.7452 38.2548 1 25 1C11.7452 1 1 11.7452 1 25C1 38.2548 11.7452 49 25 49Z" stroke="#73D614" stroke-miterlimit="10" stroke-linecap="round" stroke-linejoin="round"/>
<path d="M31.1502 36.1003C31.1502 33.5503 32.6502 34.4503 33.4002 29.8003C33.7002 27.8503 35.5001 29.8003 35.8001 25.3003C35.8001 23.5003 34.9002 23.0503 34.9002 23.0503C35.2002 21.2503 36.1002 14.6504 33.7002 11.9504C32.2002 10.1504 29.8002 10.0004 29.2002 10.0004H29.0501C28.4501 8.95038 24.4001 7.45031 19.3001 9.55031C13.9001 11.8003 13.9002 16.4503 14.6502 20.3503C14.8002 21.8503 15.1002 23.0503 15.1002 23.0503C15.1002 23.0503 14.2002 23.5003 14.2002 25.3003C14.5002 29.6503 16.3002 27.8503 16.6002 29.8003C17.5002 34.4503 18.8502 33.5503 18.8502 36.1003C18.8502 40.3003 17.3502 42.2504 11.2002 44.5004C15.1002 47.3504 19.9002 49.0004 25.1502 49.0004C30.4002 49.0004 35.0502 47.3504 39.1002 44.5004C32.6502 42.2504 31.1502 40.3003 31.1502 36.1003Z" fill="#73D614"/>
</svg>
