<svg xmlns="http://www.w3.org/2000/svg" xmlns:xlink="http://www.w3.org/1999/xlink" viewBox="0 0 1926.1 5666.4">
  <defs>
    <style>
      .cls-1 {
        fill: none;
      }

      .cls-2 {
        fill: #ffbb2e;
      }

      .cls-3 {
        fill: #ffeabe;
      }

      .cls-4 {
        fill: url(#pattern_fill);
      }
    </style>
    <pattern id="pattern_fill" data-name="pattern_fill" width="512" height="512" patternUnits="userSpaceOnUse" viewBox="0 0 512 512">
      <rect class="cls-1" width="512" height="512"/>
      <rect class="cls-2" width="512" height="512"/>
      <g>
        <path class="cls-3" d="M0,347.1,3.3,346l1,16.7,12.5-5.2,3.3,12.7,9.7-1.7c1.4,3.7,2.8,7.1,3.8,10.7a3.5,3.5,0,0,1-1.6,2.9c-.5.3-2.2-.4-2.7-1.2a16.3,16.3,0,0,1-2-4.9c-.3-1.7-1.3-1.9-2.7-1.7l-8.1,1.5c-1-3.7-1.9-7.4-3-11.4L0,369.7Z"/>
        <path class="cls-3" d="M0,124.9c.7-2.2,1.4-4.3,2-6.5a5,5,0,0,1,3.9-4.2,6.5,6.5,0,0,1,6.3,2.4l4.4,5.4h.9c.5-2.1,1-4.3,1.4-6.4,1-4.3,2.9-6.1,6.8-5.4,1.7.4,3.4,1.9,4.8,3.3s2.4,4.4,5.6,4.6c.5,0,1.4,2.3,1.1,3.1s-2.2,1.8-2.9,1.5a14.2,14.2,0,0,1-5-3,47.2,47.2,0,0,1-4.7-5.5c-.6,2.2-1.1,3.8-1.5,5.4a21,21,0,0,0-.6,2.4c-.7,2.5-2,4.6-4.8,4.9s-4.5-1.1-6.1-3l-4-5.1H6.9c-.4,1.8-.8,3.7-1.3,5.5S4,130.5,0,131.1Z"/>
        <path class="cls-3" d="M0,448c6.6,1.4,13.3,2.8,19.9,4,2.1.4,2.3,1.2,1.9,2.9-1.7,8.1-3.3,16.3-4.9,24.4-.4,1.9-1.4,2.9-3.3,2.4s-2-1.7-1.6-3.3c1.5-7.3,2.9-14.5,4.5-22.1L0,453.1Z"/>
        <path class="cls-3" d="M512,202.2c-6.4-.2-10.7,2.3-12.4,7.5-2.3,7.5,2.3,14.2,10.5,15a6.5,6.5,0,0,0,1.9-.4v5.1c-7.6.5-13.1-2.6-16.5-9.6s.4-18.8,9.1-21.6c2.3-.7,4.9-.7,7.4-1.1Z"/>
        <path class="cls-3" d="M239.6,512c.3-6.6-2.4-11-8.1-12.5-7.4-1.9-13.9,3.4-14.4,10.8a5.5,5.5,0,0,0,.5,1.7h-5.1a16.2,16.2,0,1,1,32.2,0Z"/>
        <path class="cls-3" d="M110.6,0q.5,5.7.9,11.7L94.7,7.1c0,4.5-.1,8.9,0,13.2.1,2-.6,3.6-2.6,3.5s-2.5-1.8-2.5-3.7V.6L106,5V0Z"/>
        <path class="cls-3" d="M0,197.1c4.6,1,8.4,2.9,11.3,6.9,6.1,8.3,2.4,20.9-7.4,24.3-1.3.5-2.6.7-3.9,1.1v-5.1c1.4-.5,3-.7,4.2-1.5,4.1-2.9,6-7,4.9-11.9s-4.2-7.7-9.1-8.7Z"/>
        <path class="cls-3" d="M244.7,0c-1,5.7-3.8,10.2-9.2,12.8a15.9,15.9,0,0,1-22-9.2c-.4-1.2-.7-2.4-1-3.6h5.1a10.7,10.7,0,0,0,11,9.6,11.1,11.1,0,0,0,11-9.6Z"/>
        <path class="cls-3" d="M105.5,512v-8.2l12.6,1c.6-3.1,1.2-6.3,1.8-9.7,3.9,0,7.7-.1,11.5.1a3.1,3.1,0,0,1,2.1,2.2c0,.8-1.2,2-2.1,2.2s-3.7,0-5.6.2a2.8,2.8,0,0,0-1.9,1.6,38.3,38.3,0,0,0-1,5.9c-.1,2-.8,2.9-3,2.7l-9.3-1v3Z"/>
        <path class="cls-3" d="M370.7,512c.4-1.8.8-3.5,1.3-6-2.5.9-4.3,1.7-6.3,2.3a10.8,10.8,0,0,1-4.3.7c-4.3-.5-5.7-3.5-4.4-8.5a21.3,21.3,0,0,0,1.1-3.3c.2-1.2-.1-2.5,0-3.7s.3-2.6,1-3.1,2.3,0,3,.6,1.6,4.3,1.1,6.6-1.3,4.3-2.2,7.2l6.3-2.4c2.6-1,5.3-2,7.7.4s2.1,5,1,7.7c-.1.5-.1,1-.2,1.5Z"/>
        <path class="cls-3" d="M375.3,0l-.7,4.6,5.8-2.2c2.6-1,5.1-1.7,7.6.3s2,4.8,1.4,7.4-1,2.2-1.1,3.4.2,2.4.1,3.6-.3,2.8-1,3a3.5,3.5,0,0,1-3.3-.6c-2.2-2.7-1-5.7-.1-8.6s.7-2.9,1.3-5L378,8.7c-2.4,1-4.8.9-6.7-.9a5.6,5.6,0,0,1-1.2-6.5,2.9,2.9,0,0,0,.1-1.3Z"/>
        <path class="cls-3" d="M512,365.1a22.5,22.5,0,0,1-.5-2.2c-.2-3.3-.4-6.6-.6-10.2-4.3,1.4-8.5,2.7-12.6,4.2-1.9.7-3.3.6-4-1.2s.8-2.9,2.4-3.5l15.3-5.1Z"/>
        <path class="cls-3" d="M512,131.1c-3.2-.1-5-2.4-6.8-4.6s-2.3-3.7-5-3.8c-.4,0-1.4-1.6-1.2-2a3.9,3.9,0,0,1,2.2-2.3c2.9-.7,4.8,1.2,6.6,3.2s2.8,2.9,4.2,4.4Z"/>
        <path class="cls-3" d="M512,453.1a40.8,40.8,0,0,1-6-1.6c-.9-.3-1.4-1.7-2.1-2.5,1-.7,1.9-1.9,2.9-1.9s3.5.6,5.2.9Z"/>
        <path class="cls-3" d="M441.5,233.7,422,210.4l-4.7,3.9c-5.7,4.7-11.2,9.5-17,14.1-1.7,1.3-1.5,2.1-.2,3.5,6,7,11.9,14.1,18.1,21.5Zm-20.1-16.4,13.2,15.8c-5.3,4.5-10.5,8.8-15.8,13.4l-13.3-16Z"/>
        <path class="cls-3" d="M237.9,98.9l21,22.2,22.2-20.9L260.2,78Zm22-14,14.5,15.3L270,104c-3.1,2.9-6.2,5.8-9.2,8.8-1.1,1-1.8,1.2-2.9,0-4.2-4.5-8.5-8.9-13-13.6Z"/>
        <path class="cls-3" d="M103.1,452.3c2.4-10.1,4.7-19.8,7-29.7l-29.7-7c-2.3,9.9-4.6,19.6-7,29.7Zm-3.6-5.9-20.1-4.7c1.4-6.3,2.7-12.4,4.1-18.5.5-1.7,1.8-1.4,3.1-1.1l17.6,4.2C102.6,433,101.1,439.5,99.5,446.4Z"/>
        <path class="cls-3" d="M459.9,464.7A16.6,16.6,0,0,0,443.6,448a16.3,16.3,0,0,0-16.1,16.1c-.2,8.4,7,16.7,16,16.2S459.7,472.4,459.9,464.7Zm-4.9-.4c-.2,6.5-4.3,11-11.4,11.3s-11.8-5.6-11.4-11.5,5.3-11.3,11.5-11A11.1,11.1,0,0,1,455,464.3Z"/>
        <path class="cls-3" d="M321.6,443.8a16.3,16.3,0,0,0-16.1-16.3c-9.6,0-16.2,8.3-16.3,16.2s7.2,16.7,16.1,16.1S321.6,452,321.6,443.8Zm-4.9.1c-.1,6.5-4.3,11.1-11.2,11.1S294,449.9,294,443.6a11.1,11.1,0,0,1,11.5-11A11,11,0,0,1,316.7,443.9Z"/>
        <path class="cls-3" d="M260.2,274.8A16.5,16.5,0,0,0,244,258.5c-8.9,0-16,7.5-16.3,16.1s7.9,16.9,16.1,16.2C252.6,291.7,260.3,282.9,260.2,274.8Zm-5.1.3a10.9,10.9,0,0,1-11.3,11c-6.9-.2-11.3-5.2-11.2-11.6a10.8,10.8,0,0,1,11.6-10.9C250.5,263.7,255,268.6,255.1,275.1Z"/>
        <path class="cls-3" d="M110.2,137.3a16.2,16.2,0,1,0,.6-32.4c-8.4,0-16.7,7.4-16.1,16.2S102,137.1,110.2,137.3Zm.6-4.8c-6.5-.1-11.4-4.7-11.4-11.4s4.7-11.1,11.4-11.4,11.7,5.6,11.1,11.6S116.8,132.6,110.8,132.5Z"/>
        <path class="cls-3" d="M475.2,34.5c.3-9.3-7.9-16.5-15.8-16.7s-16.5,7.7-16.6,15.9,7.6,16.8,16,16.5S475,42.6,475.2,34.5ZM459,45.6c-5.7-.1-11.7-5.7-11.4-11.3.5-7.5,4.9-11.3,11.7-11.7s11.3,5.8,11.2,11.5S464.8,45.6,459,45.6Z"/>
        <path class="cls-3" d="M354,400l-9.9-14.3-7.3,8.6c-.6.7-1.1,1.7-1.8,2s-2.9.9-3.8.4-.9-2.5.1-3.8,4.4-5.1,6.7-7.6l6.6-7.6,9.5,13.8c2.8-3.8,5.3-7.4,8-11L371,390l7.9-6.6c2.9,2.3,5.9,4.6,8.7,7.1,1.1,1,1.5,2.6.2,3.5a3.8,3.8,0,0,1-3.6,0,33.3,33.3,0,0,1-5.1-4.3l-7.8,6.6-8.2-8.7C359.8,392.1,356.9,395.9,354,400Z"/>
        <path class="cls-3" d="M400.5,88.4l10.9-8.1c1.6,3.3,3.4,6.4,4.9,9.6.8,1.6,1.6,2.1,3.3,1.2s4.6-2.1,6.9-3.2l6.1,9.1a2.5,2.5,0,0,1-.9,3.9c-1.4.9-2.4,0-3.2-1.3l-3.8-5.5-9.3,4.2-5.7-10.6-11.8,8.8c-1.8-5.5-3.5-10.9-5.3-16.5-3.9,2.6-7.5,4.9-11.1,7.1a4.4,4.4,0,0,1-3.5.6c-1.9-.7-1.5-3.2.6-4.6l13.2-8.4,3.6-2.2C397.1,77.9,398.8,83,400.5,88.4Z"/>
        <path class="cls-3" d="M346.5,216.6c-1.3,3.3-2.6,6.4-3.8,9.6l-11.4-3.4c-.8,4.8-1.5,9.5-2.3,14.6l-15.3-8.1c-1,4.5-2,8.7-2.9,12.9-.6,2.5-2,3.7-3.5,2.7s-1.7-1.8-1.5-2.5c1.3-6.5,2.9-12.9,4.4-19.3a6.2,6.2,0,0,0,.3-1l14.7,7.7c.7-4.7,1.4-8.9,2.1-13.4l12.4,3.8c1.3-3.1,2.5-6.1,3.7-9.2l10.2,2.1c1.6.3,3.1,1.1,2.7,3.2s-2.1,2-3.7,1.7Z"/>
        <path class="cls-3" d="M187,373.7l-17.3-1.5c.6,3.2,1.1,6,1.6,8.9a25.7,25.7,0,0,1,.6,5.5,3.2,3.2,0,0,1-1.8,2.4c-1.4.5-2.4-.3-2.7-1.9l-3-17.3c-.2-1-.4-1.9-.6-3l16.7,1.4c-1.1-4.6-2.2-8.8-3.2-13.1l12.7-1.3v-8c-.1-1.4.3-2.1,1.9-2.3,3.1-.4,6.1-1,9.2-1.6s2.8.4,2.8,1.8a3.7,3.7,0,0,1-1.8,2.8,48.3,48.3,0,0,1-7,1.3v10.4l-11.7,1.3C184.6,364.2,185.7,368.7,187,373.7Z"/>
        <path class="cls-3" d="M154.8,180.7l31.9-14.2-27-20.4C158,157.8,156.5,169.1,154.8,180.7Zm22.3-15.3-16.2,7.2c.8-6,1.6-11.6,2.5-17.6Z"/>
        <path class="cls-3" d="M114.8,359c-3.8-11.2-7.6-22-11.4-33L81.5,353.2Zm-7.3-6.3-17-2.9,11.2-13.9C103.6,341.7,105.5,347,107.5,352.7Z"/>
        <path class="cls-3" d="M378.4,295.8c.9,11.7,1.8,23.1,2.7,34.9L409.3,312Zm5.5,8.5,15.8,8.2L385.3,322C384.8,315.9,384.4,310.3,383.9,304.3Z"/>
        <path class="cls-3" d="M169.5,258.3l-6.6,2.8c-2.3.8-4.8,1.2-6.8-.5a5.3,5.3,0,0,1-1.5-6.6,14,14,0,0,0,1-3.9c.2-1.4-.1-2.7,0-4.1s.4-2.9.8-2.9,2.9,0,3.5.8,1.4,4.6.5,7.2-1,3.8-1.6,6.2l7.9-2.9c5-1.6,8.5,1.6,7.4,6.6-.6,2.5-1.2,5-1.9,8.3l4.5-1.7c2-.7,4.2-1.8,6.2-1.6,4.1.3,5.7,3.8,4.3,8.6-.7,2.6-1.9,5-.9,7.8a2.7,2.7,0,0,1-1.2,2.4,3.3,3.3,0,0,1-2.9-.6c-1.7-1.7-1.8-3.9-1.2-6.1s1.3-4.6,2.1-7.5c-3.3,1.1-5.9,2.1-8.6,2.8-4.6,1.2-8.1-2.2-6.9-6.8.4-1.8,1-3.5,1.5-5.3S169.3,259.7,169.5,258.3Z"/>
        <path class="cls-3" d="M353,165.1,330.8,149c-1.3-1-2.3-2.2-1.1-3.8s2.7-1.1,4.1-.1c5.4,3.9,11,7.8,16.3,11.9,1.5,1.1,2.2.6,3.1-.5l11.6-16.2c1-1.5,2.1-2.7,3.9-1.5s1.2,2.7.1,4.1Z"/>
        <path class="cls-3" d="M81.3,228.8l11.8,15.3c1.6,2,3.1,3.9,4.6,6s2,3,.2,4.4-3.1,0-4.2-1.5c-4.3-5.7-8.7-11.3-13.3-17.2-2.8,2.1-5.7,4.2-8.4,6.4l-9.6,7.5c-1.2.9-2.8,1.2-3.5-.2s-.2-3.1.5-3.7c4.5-3.8,9.1-7.2,13.8-10.7Z"/>
        <path class="cls-3" d="M259.9,386.5c4.9,8,9.4,15.7,14.2,23.4,1,1.6,1.2,2.7-.4,3.8s-2.9,0-3.7-1.3c-3.3-5.2-6.6-10.5-9.8-15.9-1.9-3.1-1.8-3.2-4.9-1.4l-15.5,9.4a6.6,6.6,0,0,1-3.1.9c-.5.1-1.6-.7-1.6-1.1s.3-2.5,1-3a59.5,59.5,0,0,1,6.7-4.4Z"/>
        <path class="cls-3" d="M171.2,46.9,152.1,57.1a5.4,5.4,0,0,1-1.3.7c-1.3.3-2.6.5-3.4-1.1s0-2.6,1.2-3.3l9.8-5.3L173,40.3l3.5,6.1c3.2,5.9,6.2,11.9,9.5,17.8.9,1.8.9,3.2-.7,4.1s-2.9-.4-3.6-1.7-3-5.5-4.5-8.2S173.3,51,171.2,46.9Z"/>
        <path class="cls-3" d="M482.6,304.6c-.4-6.4-.8-12.5-1.2-18.6a19.3,19.3,0,0,1,0-4.8c.1-.8,1.1-2,1.7-2a5,5,0,0,1,2.8,1.4,3,3,0,0,1,.4,1.9c.3,4.9.4,9.7.6,14.5s.5,8,.7,12c-2.2.2-4.4.6-6.5.7l-20.3,1.1c-1.9.1-3.6,0-3.6-2.5s1.8-2.5,3.5-2.6Z"/>
        <path class="cls-3" d="M284.9,326.4l10.4-15.7c1.5-2.3,3.2-4.5,4.6-6.9s2.2-2.3,3.7-1.4,1.2,2.8.2,4.3l-10.9,16.6a14.2,14.2,0,0,0-1.1,1.8l17.7,11.8a5.7,5.7,0,0,1,1.3.8c1.1.9,1.8,2.1.9,3.5s-2.3,1.4-3.7.4l-14.5-9.5Z"/>
        <path class="cls-3" d="M316,64.6a16.5,16.5,0,0,1-11-4c-1.2-1.1-1.2-2.5-.2-3.3s2.6-.8,3.2-.2c4.9,3.8,12.3,2.9,15.9-1.2s3.8-10.8.2-14.8c-1.4-1.5-3.4-3.2-1.2-5.1s3.5.3,4.7,1.6c4,4.6,5.2,9.8,3.4,15.5A15.6,15.6,0,0,1,319.6,64Z"/>
        <path class="cls-3" d="M49.9,292.4c3.6.1,7.9,2.2,11.2,6.5,1,1.4,1.2,2.9-.2,3.8s-2.6.7-3.8-1c-3.3-4.6-10.3-5.7-15.2-2.7s-6.4,9.3-4,14.5c.8,1.7,2.4,3.7-.2,4.9s-3.5-1.2-4.3-2.9C28.4,304.7,36.1,292.3,49.9,292.4Z"/>
        <path class="cls-3" d="M23.4,54.3a16.5,16.5,0,0,1-9.8-3.5c-1.4-1-1.9-2.4-.9-3.6s2.3-1.5,3.8-.4c6.4,5.1,16.2,2,18-6.1A10.7,10.7,0,0,0,32.3,31c-.4-.4-1.1-.8-1.2-1.3s-.8-2.9-.2-3.8,2.8-.8,3.6.3,4,5.2,4.7,8.1A16,16,0,0,1,23.4,54.3Z"/>
        <path class="cls-3" d="M177,463.9a15.3,15.3,0,0,1-9.4-3c-1.3-1-2.3-2.1-1.3-3.8s2.5-1.5,4-.3c7.8,5.7,16.3.2,17.8-6.1.9-3.9.3-7.5-2.6-10.5-.4-.4-1.2-.9-1.3-1.4s-.3-2.5.3-3.3,2.5-.9,3.5.2c3.8,3.6,5.9,8.1,5.4,13.3-.7,7.7-5.4,12.8-12.8,14.7A21.7,21.7,0,0,1,177,463.9Z"/>
        <path class="cls-3" d="M69.2,178.1c-.3,6.7-3.2,11.7-9.3,14.7-1.9.9-3.4.9-4.3-.9s.5-2.8,1.9-3.5a11.2,11.2,0,0,0,6.7-8.6c1.2-5.4-3-11.9-9.1-12.8a17.5,17.5,0,0,0-5.1.2c-1.7.3-3.3.6-3.9-1.5s1.1-2.9,2.7-3.3C59.1,159.5,69.6,167.7,69.2,178.1Z"/>
        <path class="cls-3" d="M452.8,167a15.6,15.6,0,0,1-.8,4.4c-.5.9-2,2.1-3,1.9s-2-1.5-1.6-3.3c1.2-4.4,0-8.2-3.3-11.4a11.2,11.2,0,0,0-17.2,2.4,11.7,11.7,0,0,1-1.5,2.7c-.7.7-2,1.6-2.7,1.3a2.2,2.2,0,0,1-1.6-3.1c2.1-6.1,6.3-9.8,12.5-10.8,9.1-1.5,15.9,3,18.5,11.9A23.8,23.8,0,0,1,452.8,167Z"/>
        <path class="cls-3" d="M459.8,379.8c0,7.5-6.7,14.3-14,15-9.3.9-16.1-4.9-18-12.9a5.1,5.1,0,0,1-.2-2.7,4.4,4.4,0,0,1,1.9-2.8c1.6-.6,2.6.7,3,2.3s.5,4,1.5,5.7c2.2,4.1,7.5,6.5,11.5,5.7a11.9,11.9,0,0,0,9.6-10.4c.2-1.9.5-3.4,2.5-3.2S460,378.3,459.8,379.8Z"/>
        <path class="cls-3" d="M240,182.3c.2,1.2.5,2.5.6,3.7s.2,2.8-1.6,3.2-2.5-.6-3-2c-1.9-5-.9-9.7,1.8-14a15.5,15.5,0,0,1,14.7-7.2,15.8,15.8,0,0,1,13.7,9.6c.8,1.6,1,3.2-.8,3.9s-3,.1-3.7-1.8a11.2,11.2,0,0,0-12.8-6.7C243.9,172,240.1,176.9,240,182.3Z"/>
      </g>
    </pattern>
  </defs>
  <title>pattern_fill</title>
  <g id="Слой_2" data-name="Слой 2">
    <g id="pattern_free_1000">
      <path class="cls-4" d="M961.4,15.4a26.1,26.1,0,0,1-6.9-4.3c-2.6-2-4.5-4.4-7.2-6.4s-4.8-3.5-8.5-4.1a18.1,18.1,0,0,0-12.3,2,49,49,0,0,0-8.1,6.5,38.1,38.1,0,0,1-6.9,5.3c-4.9,2.9-13,2.5-17.4-.8s-5.5-5.2-8.5-7.7a23.1,23.1,0,0,0-6.4-4.3C873.4-.6,865.4.1,860.8,3.7c-3,2.3-5.4,4.9-8.2,7.2s-4.8,3.8-8.6,4.8a25.2,25.2,0,0,1-7.3.7,19.4,19.4,0,0,1-10.8-3.7,59.4,59.4,0,0,1-6.9-6,29.4,29.4,0,0,0-6.2-4.6A19.5,19.5,0,0,0,803.3.3a18.3,18.3,0,0,0-10.8,4c-3.1,2.3-5.2,5.1-8.2,7.5a20.3,20.3,0,0,1-6.3,3.8c-4.5,1.4-10.1.8-13.5-1.3A34,34,0,0,1,757.6,9a42.7,42.7,0,0,0-8.7-6.7,18.5,18.5,0,0,0-17.1.3,38.3,38.3,0,0,0-6.2,4.9,43.6,43.6,0,0,1-8,6.5,13.5,13.5,0,0,1-7.8,2.3,20.9,20.9,0,0,1-8.7-1.9,40.9,40.9,0,0,1-9-7.1A31.1,31.1,0,0,0,684,1.5a18.6,18.6,0,0,0-15,.2,36.5,36.5,0,0,0-8.3,6.4,50.1,50.1,0,0,1-7.1,5.6,16,16,0,0,1-8.4,2.4,15.8,15.8,0,0,1-9.9-3c-3-2.2-5.1-4.7-7.7-7a20.8,20.8,0,0,0-8-5.1c-5.7-1.8-12.4-1.1-16.8,2a62.1,62.1,0,0,0-7.7,6.6,30.1,30.1,0,0,1-6.3,4.6,20.6,20.6,0,0,1-6.9,1.8,30.1,30.1,0,0,1-7.4-.4,14.2,14.2,0,0,1-4.9-1.8,34.3,34.3,0,0,1-7.5-5.9A32.1,32.1,0,0,0,554.6,2,17.6,17.6,0,0,0,546.8.1,18.8,18.8,0,0,0,535.2,3a51.2,51.2,0,0,0-7.3,6.5,25.5,25.5,0,0,1-6.5,5,16.9,16.9,0,0,1-14.1.2,28.7,28.7,0,0,1-8-5.7,42.8,42.8,0,0,0-9-7.1,18.1,18.1,0,0,0-16.2,0,32.5,32.5,0,0,0-6.7,5,50,50,0,0,1-8.6,6.9c-4.7,2.9-12.5,3.2-17.6,0s-6.4-5.1-9.4-7.7a24.4,24.4,0,0,0-7.3-4.8,18,18,0,0,0-14.9.8,45.2,45.2,0,0,0-8.9,7,31.5,31.5,0,0,1-7.3,5.4c-5.4,2.7-12.9,2.1-17.3-1.4s-5.2-5.2-8.2-7.6a20.2,20.2,0,0,0-6.3-4.1c-5.4-2.1-12.3-1.6-16.8,1.1s-5.9,4.7-8.6,7.2a27.2,27.2,0,0,1-6.5,4.7,22.5,22.5,0,0,1-10.1,1.8,20.2,20.2,0,0,1-11.7-4c-2.8-2-4.7-4.3-7.2-6.4a21.8,21.8,0,0,0-6.2-4.2A18.8,18.8,0,0,0,285.2.2a19.3,19.3,0,0,0-10.8,4.3c-3,2.3-4.9,5-7.8,7.3s-3.9,3.2-7,3.9c-4.8,1-9.1.5-12.8-1.7a37.6,37.6,0,0,1-7.5-5.9,39.2,39.2,0,0,0-8-6.1A16.8,16.8,0,0,0,222.5.1a15.4,15.4,0,0,0-7.8,2.2A38.4,38.4,0,0,0,207.4,8a39.8,39.8,0,0,1-8.1,6.3,22.1,22.1,0,0,1-6.6,1.9c-4.5.7-7.5-.9-10.2-2.7a45.4,45.4,0,0,1-7.1-5.9,27.6,27.6,0,0,0-7.8-5.7,18,18,0,0,0-14.9.2c-3.5,1.7-6,4.1-8.5,6.4a39.6,39.6,0,0,1-8.4,6.4c-4.7,2.4-11.7,2.1-15.9-.6a45.2,45.2,0,0,1-7.3-6.4,26,26,0,0,0-7-5.4A15.4,15.4,0,0,0,99,.6,18.8,18.8,0,0,0,85.9,3.7a67.4,67.4,0,0,0-7.4,6.5,24.5,24.5,0,0,1-7.6,5,20.9,20.9,0,0,1-8.8,1.3,19.1,19.1,0,0,1-11.8-4.1c-2.7-1.9-4.7-4.2-7.1-6.2A20.9,20.9,0,0,0,36,1.5C30.6-.3,24.1.2,19.7,2.8a39.7,39.7,0,0,0-8.1,7,24,24,0,0,1-7.7,5.6,9.7,9.7,0,0,1-3.9.9c0,.3.1.6.1.9V5666.4h1926V16.4a4,4,0,0,0-1.7-1,26.1,26.1,0,0,1-6.9-4.3c-2.6-2-4.5-4.4-7.2-6.4s-4.8-3.5-8.5-4.1a18.1,18.1,0,0,0-12.3,2,49,49,0,0,0-8.1,6.5,38.1,38.1,0,0,1-6.9,5.3c-4.9,2.9-13,2.5-17.4-.8s-5.5-5.2-8.5-7.7a21.7,21.7,0,0,0-6.4-4.3c-5.7-2.2-13.8-1.5-18.4,2.1-3,2.3-5.3,4.9-8.2,7.2s-4.8,3.8-8.5,4.8a25.5,25.5,0,0,1-7.3.7,19.5,19.5,0,0,1-10.9-3.7,82.5,82.5,0,0,1-6.9-6,29.4,29.4,0,0,0-6.2-4.6,19.5,19.5,0,0,0-9.5-1.8,18.3,18.3,0,0,0-10.8,4c-3.1,2.3-5.2,5.1-8.2,7.5a20.3,20.3,0,0,1-6.3,3.8c-4.4,1.4-10.1.8-13.5-1.3a34,34,0,0,1-6.9-5.3,42.7,42.7,0,0,0-8.7-6.7,18.5,18.5,0,0,0-17.1.3,43.1,43.1,0,0,0-6.2,4.9,46.4,46.4,0,0,1-7.9,6.5,13.9,13.9,0,0,1-7.9,2.3,21.3,21.3,0,0,1-8.7-1.9,40.9,40.9,0,0,1-9-7.1,32.3,32.3,0,0,0-8-5.8,18.6,18.6,0,0,0-15,.2,35.1,35.1,0,0,0-8.4,6.4,45,45,0,0,1-7.1,5.6,16,16,0,0,1-8.4,2.4,16,16,0,0,1-9.9-3c-3-2.2-5.1-4.7-7.7-7s-4.4-4-8-5.1c-5.7-1.8-12.4-1.1-16.8,2a70.3,70.3,0,0,0-7.7,6.6,27.7,27.7,0,0,1-6.3,4.6,20.6,20.6,0,0,1-6.9,1.8,30.1,30.1,0,0,1-7.4-.4,13.7,13.7,0,0,1-4.8-1.8,32.7,32.7,0,0,1-7.6-5.9,32.1,32.1,0,0,0-7.5-5.9,17.3,17.3,0,0,0-7.8-1.9A18.8,18.8,0,0,0,1498.2,3a51.2,51.2,0,0,0-7.3,6.5,22.4,22.4,0,0,1-6.5,5,16.9,16.9,0,0,1-14.1.2,30.3,30.3,0,0,1-8-5.7,40.3,40.3,0,0,0-9-7.1,18.1,18.1,0,0,0-16.2,0,35.4,35.4,0,0,0-6.7,5,50,50,0,0,1-8.6,6.9c-4.7,2.9-12.5,3.2-17.6,0s-6.4-5.1-9.4-7.7a24.4,24.4,0,0,0-7.3-4.8,17.7,17.7,0,0,0-14.8.8,45.9,45.9,0,0,0-9,7,29.5,29.5,0,0,1-7.3,5.4c-5.4,2.7-12.9,2.1-17.3-1.4s-5.2-5.2-8.2-7.6a19.1,19.1,0,0,0-6.3-4.1,20.4,20.4,0,0,0-16.8,1.1,50.4,50.4,0,0,0-8.5,7.2,30,30,0,0,1-6.6,4.7,22.2,22.2,0,0,1-10.1,1.8,20.5,20.5,0,0,1-11.7-4c-2.8-2-4.7-4.3-7.1-6.4a23.9,23.9,0,0,0-6.3-4.2,18.8,18.8,0,0,0-9.3-1.4,19.3,19.3,0,0,0-10.8,4.3c-2.9,2.3-4.9,5-7.8,7.3s-3.9,3.2-7,3.9c-4.8,1-9.1.5-12.8-1.7a40.7,40.7,0,0,1-7.5-5.9,39.2,39.2,0,0,0-8-6.1,16.8,16.8,0,0,0-8.8-1.9,15.4,15.4,0,0,0-7.8,2.2,38.4,38.4,0,0,0-7.3,5.7,37.2,37.2,0,0,1-8.1,6.3,22.1,22.1,0,0,1-6.6,1.9c-4.5.7-7.5-.9-10.2-2.7a45.4,45.4,0,0,1-7.1-5.9,26.3,26.3,0,0,0-7.8-5.7,17.8,17.8,0,0,0-14.8.2c-3.6,1.7-6.1,4.1-8.6,6.4a37.2,37.2,0,0,1-8.4,6.4c-4.7,2.4-11.7,2.1-15.8-.6a41.3,41.3,0,0,1-7.3-6.4,28.3,28.3,0,0,0-7.1-5.4A15.4,15.4,0,0,0,1062,.6a18.8,18.8,0,0,0-13.1,3.1,92.9,92.9,0,0,0-7.4,6.5,23.4,23.4,0,0,1-7.6,5,20.9,20.9,0,0,1-8.8,1.3,19.1,19.1,0,0,1-11.8-4.1c-2.7-1.9-4.6-4.2-7-6.2A22.4,22.4,0,0,0,999,1.5C993.6-.3,987.2.2,982.8,2.8a37.8,37.8,0,0,0-8.2,7,24,24,0,0,1-7.7,5.6"/>
    </g>
  </g>
</svg>
