<svg xmlns="http://www.w3.org/2000/svg" viewBox="0 0 2440.1 1524.4">
  <defs>
    <style>
      .cls-1 {
        fill: #faf8d8;
      }
    </style>
  </defs>
  <title>vawe_1</title>
  <g id="Слой_2" data-name="Слой 2">
    <g id="Слой_1-2" data-name="Слой 1">
      <path class="cls-1" d="M.1,1524.4h2440V16.4a5.6,5.6,0,0,0-2.2-1,35.3,35.3,0,0,1-8.7-4.3c-3.3-2-5.7-4.4-9.1-6.4S2414,1.2,2409.3.6s-11.1-.1-15.5,2a58.8,58.8,0,0,0-10.3,6.5,55.8,55.8,0,0,1-8.7,5.3c-6.3,2.9-16.5,2.5-22.1-.8-4-2.4-7-5.2-10.7-7.7a31.6,31.6,0,0,0-8.2-4.3c-7.3-2.2-17.4-1.5-23.3,2.1-3.8,2.3-6.8,4.9-10.4,7.2a30.9,30.9,0,0,1-10.8,4.8,40.8,40.8,0,0,1-9.3.7,29.5,29.5,0,0,1-13.8-3.7,101.7,101.7,0,0,1-8.7-6,35,35,0,0,0-7.9-4.6,30.3,30.3,0,0,0-12-1.8,27.3,27.3,0,0,0-13.6,4c-4,2.3-6.7,5.1-10.4,7.5a27.1,27.1,0,0,1-8,3.8c-5.6,1.4-12.8.8-17.1-1.3a46.7,46.7,0,0,1-8.8-5.3,51.8,51.8,0,0,0-10.9-6.7c-6.2-2.7-15.7-2.6-21.7.3a45.2,45.2,0,0,0-7.8,4.9,62.6,62.6,0,0,1-10.1,6.5,21.1,21.1,0,0,1-10,2.3,32.6,32.6,0,0,1-11-1.9,55,55,0,0,1-11.5-7.1,37.2,37.2,0,0,0-10.1-5.8,29.4,29.4,0,0,0-19,.2,47.3,47.3,0,0,0-10.7,6.4,54.3,54.3,0,0,1-8.9,5.6,24.4,24.4,0,0,1-10.6,2.4,24,24,0,0,1-12.6-3c-3.8-2.2-6.4-4.7-9.7-7A27.8,27.8,0,0,0,2004.9,1c-7.2-1.8-15.7-1.1-21.2,2a72.8,72.8,0,0,0-9.8,6.6,38.2,38.2,0,0,1-8,4.6,31.9,31.9,0,0,1-8.7,1.8,48.3,48.3,0,0,1-9.4-.4,22.5,22.5,0,0,1-6.2-1.8,43.9,43.9,0,0,1-9.5-5.9,41.6,41.6,0,0,0-9.5-5.9,26.8,26.8,0,0,0-9.9-1.9c-5.8-.2-10.7.8-14.6,2.9a56.4,56.4,0,0,0-9.3,6.5,32.6,32.6,0,0,1-8.2,5c-5,2.1-12.3,2.2-17.9.2A37.8,37.8,0,0,1,1852.5,9a49.6,49.6,0,0,0-11.3-7.1c-5.8-2.5-14.7-2.6-20.6,0a45.4,45.4,0,0,0-8.5,5,63.6,63.6,0,0,1-10.9,6.9c-5.9,2.9-15.9,3.2-22.3,0-4.7-2.3-8.1-5.1-11.9-7.7a31.8,31.8,0,0,0-9.2-4.8c-6.1-1.9-13.5-1.6-18.8.8a56.7,56.7,0,0,0-11.4,7,38.5,38.5,0,0,1-9.2,5.4c-6.8,2.7-16.3,2.1-21.9-1.4-3.8-2.5-6.7-5.2-10.4-7.6a27.3,27.3,0,0,0-8-4.1c-6.9-2.1-15.5-1.6-21.3,1.1s-7.4,4.7-10.8,7.2a36.9,36.9,0,0,1-8.4,4.7,34.6,34.6,0,0,1-12.7,1.8,30.5,30.5,0,0,1-14.9-4c-3.4-2-5.9-4.3-9-6.4a31,31,0,0,0-7.9-4.2A29.7,29.7,0,0,0,1581.3.2a28,28,0,0,0-13.6,4.3c-3.8,2.3-6.3,5-10,7.3s-4.9,3.2-8.9,3.9c-6,1-11.5.5-16.2-1.7a50.3,50.3,0,0,1-9.4-5.9A51,51,0,0,0,1513.1,2,26.4,26.4,0,0,0,1501.9.1a23.6,23.6,0,0,0-9.9,2.2,49,49,0,0,0-9.3,5.7,44.1,44.1,0,0,1-10.3,6.3,33.7,33.7,0,0,1-8.3,1.9c-5.7.7-9.4-.9-12.9-2.7a50,50,0,0,1-9-5.9,35.8,35.8,0,0,0-9.9-5.7,28.2,28.2,0,0,0-18.8.2c-4.5,1.7-7.7,4.1-10.9,6.4a46.5,46.5,0,0,1-10.6,6.4c-5.9,2.4-14.8,2.1-20.1-.6a53.4,53.4,0,0,1-9.2-6.4,36.3,36.3,0,0,0-8.9-5.4,23.5,23.5,0,0,0-8.3-1.9c-6.8-.5-12.1.6-16.7,3.1s-6.3,4.3-9.4,6.5a32.1,32.1,0,0,1-9.6,5,32.9,32.9,0,0,1-11.1,1.3,28.6,28.6,0,0,1-15-4.1c-3.4-1.9-5.9-4.2-8.9-6.2a28.9,28.9,0,0,0-9.3-4.7c-6.7-1.8-14.9-1.3-20.5,1.3a47.6,47.6,0,0,0-10.3,7,31.5,31.5,0,0,1-9.8,5.6h-7a35.3,35.3,0,0,1-8.7-4.3c-3.3-2-5.7-4.4-9.1-6.4S1194,1.2,1189.3.6s-11.1-.1-15.5,2a58.8,58.8,0,0,0-10.3,6.5,55.8,55.8,0,0,1-8.7,5.3c-6.3,2.9-16.5,2.5-22.1-.8-4-2.4-7-5.2-10.7-7.7a31.6,31.6,0,0,0-8.2-4.3c-7.3-2.2-17.4-1.5-23.3,2.1-3.8,2.3-6.8,4.9-10.4,7.2a30.9,30.9,0,0,1-10.8,4.8,40.8,40.8,0,0,1-9.3.7,29.5,29.5,0,0,1-13.8-3.7,101.7,101.7,0,0,1-8.7-6,35,35,0,0,0-7.9-4.6,30.3,30.3,0,0,0-12-1.8,27.3,27.3,0,0,0-13.6,4c-4,2.3-6.7,5.1-10.4,7.5a27.1,27.1,0,0,1-8,3.8c-5.6,1.4-12.8.8-17.1-1.3A46.7,46.7,0,0,1,959.7,9a51.8,51.8,0,0,0-10.9-6.7c-6.2-2.7-15.7-2.6-21.7.3a45.2,45.2,0,0,0-7.8,4.9A62.6,62.6,0,0,1,909.2,14a21.1,21.1,0,0,1-10,2.3,32.6,32.6,0,0,1-11-1.9,55,55,0,0,1-11.5-7.1,37.2,37.2,0,0,0-10.1-5.8,29.4,29.4,0,0,0-19,.2,47.3,47.3,0,0,0-10.7,6.4,54.3,54.3,0,0,1-8.9,5.6,24.4,24.4,0,0,1-10.6,2.4,24,24,0,0,1-12.6-3c-3.8-2.2-6.4-4.7-9.7-7A27.8,27.8,0,0,0,784.9,1c-7.2-1.8-15.7-1.1-21.2,2a72.8,72.8,0,0,0-9.8,6.6,38.2,38.2,0,0,1-8,4.6,31.9,31.9,0,0,1-8.7,1.8,48.3,48.3,0,0,1-9.4-.4,22.5,22.5,0,0,1-6.2-1.8,43.9,43.9,0,0,1-9.5-5.9A41.6,41.6,0,0,0,702.6,2,26.8,26.8,0,0,0,692.7.1C686.9-.1,682,.9,678.1,3a56.4,56.4,0,0,0-9.3,6.5,32.6,32.6,0,0,1-8.2,5c-5,2.1-12.3,2.2-17.9.2A37.8,37.8,0,0,1,632.5,9a49.6,49.6,0,0,0-11.3-7.1c-5.8-2.5-14.7-2.6-20.6,0a45.4,45.4,0,0,0-8.5,5,63.6,63.6,0,0,1-10.9,6.9c-5.9,2.9-15.9,3.2-22.3,0-4.7-2.3-8.1-5.1-11.9-7.7a31.8,31.8,0,0,0-9.2-4.8c-6.1-1.9-13.5-1.6-18.8.8a56.7,56.7,0,0,0-11.4,7,38.5,38.5,0,0,1-9.2,5.4c-6.8,2.7-16.3,2.1-21.9-1.4-3.8-2.5-6.7-5.2-10.4-7.6a27.3,27.3,0,0,0-8-4.1c-6.9-2.1-15.5-1.6-21.3,1.1S429.4,7.2,426,9.7a36.9,36.9,0,0,1-8.4,4.7,34.6,34.6,0,0,1-12.7,1.8,30.5,30.5,0,0,1-14.9-4c-3.4-2-5.9-4.3-9-6.4a31,31,0,0,0-7.9-4.2A29.7,29.7,0,0,0,361.3.2a28,28,0,0,0-13.6,4.3c-3.8,2.3-6.3,5-10,7.3s-4.9,3.2-8.9,3.9c-6,1-11.5.5-16.2-1.7a50.3,50.3,0,0,1-9.4-5.9A51,51,0,0,0,293.1,2,26.4,26.4,0,0,0,281.9.1,23.6,23.6,0,0,0,272,2.3,49,49,0,0,0,262.7,8a44.1,44.1,0,0,1-10.3,6.3,33.7,33.7,0,0,1-8.3,1.9c-5.7.7-9.4-.9-12.9-2.7a50,50,0,0,1-9-5.9,35.8,35.8,0,0,0-9.9-5.7,28.2,28.2,0,0,0-18.8.2c-4.5,1.7-7.7,4.1-10.9,6.4A46.5,46.5,0,0,1,172,14.9c-5.9,2.4-14.8,2.1-20.1-.6a53.4,53.4,0,0,1-9.2-6.4,36.3,36.3,0,0,0-8.9-5.4A23.5,23.5,0,0,0,125.5.6c-6.8-.5-12.1.6-16.7,3.1s-6.3,4.3-9.4,6.5a32.1,32.1,0,0,1-9.6,5,32.9,32.9,0,0,1-11.1,1.3,28.6,28.6,0,0,1-15-4.1c-3.4-1.9-5.9-4.2-8.9-6.2a28.9,28.9,0,0,0-9.3-4.7C38.8-.3,30.6.2,25,2.8a47.6,47.6,0,0,0-10.3,7,31.5,31.5,0,0,1-9.8,5.6,14.3,14.3,0,0,1-4.9.9c0,.3.1.6.1.9Z"/>
    </g>
  </g>
</svg>
