<svg width="48" height="48" viewBox="0 0 48 48" fill="none" xmlns="http://www.w3.org/2000/svg">
<path d="M42.8438 17.4375H37.0247C32.4404 17.4375 28.1276 14.9956 25.7695 11.0651L24.5676 9.06152C22.4634 5.55396 18.6152 3.375 14.5247 3.375C8.06653 3.375 2.8125 8.62903 2.8125 15.0872V18.0015C1.10669 18.8723 0 20.6411 0 22.5938C0 24.546 1.10632 26.3163 2.8125 27.1879V41.8125C2.8125 43.3634 4.0741 44.625 5.625 44.625H19.7812C20.2991 44.625 20.7188 44.2053 20.7188 43.6875C20.7188 43.1697 20.2991 42.75 19.7812 42.75H10.3125V36.1875H37.6875V42.75H28.2188C27.7009 42.75 27.2812 43.1697 27.2812 43.6875C27.2812 44.2053 27.7009 44.625 28.2188 44.625H42.375C43.9259 44.625 45.1875 43.3634 45.1875 41.8125V27.1879C46.8937 26.3163 48 24.546 48 22.5938C48 19.7505 45.687 17.4375 42.8438 17.4375ZM14.5247 5.25C17.9601 5.25 21.1923 7.07996 22.96 10.0261L24.1619 12.0293C26.8693 16.5425 31.7527 19.3114 37.0247 19.3114H38.8693C38.1313 20.2039 37.6875 21.3483 37.6875 22.5938V28.4271C35.3763 27.8903 29.9879 26.8125 24 26.8125C18.0121 26.8125 12.6237 27.8903 10.3125 28.4271V22.5938C10.3125 19.7505 7.99951 17.4375 5.15625 17.4375C4.99878 17.4375 4.84277 17.4448 4.6875 17.4591V15.0872C4.6875 9.66284 9.10034 5.25 14.5247 5.25V5.25ZM4.6875 41.8125V26.5726C4.6875 26.1753 4.43701 25.8212 4.06238 25.6886C2.75427 25.2261 1.875 23.9824 1.875 22.5938C1.875 20.7883 3.34131 19.3125 5.15625 19.3125C6.9657 19.3125 8.4375 20.7843 8.4375 22.5938V42.75H5.625C5.10791 42.75 4.6875 42.3296 4.6875 41.8125ZM10.3125 34.3125V30.3563C12.2249 29.8978 17.8561 28.6875 24 28.6875C30.1439 28.6875 35.7751 29.8978 37.6875 30.3563V34.3125H10.3125ZM43.9376 25.6886C43.563 25.8212 43.3125 26.1753 43.3125 26.5726V41.8125C43.3125 42.3296 42.8921 42.75 42.375 42.75H39.5625V22.5938C39.5625 20.7843 41.0343 19.3125 42.8438 19.3125C44.6532 19.3125 46.125 20.7843 46.125 22.5938C46.125 23.9824 45.2457 25.2261 43.9376 25.6886V25.6886Z" fill="#73D614"/>
<path d="M24.9375 43.6875C24.9375 44.2053 24.5178 44.625 24 44.625C23.4822 44.625 23.0625 44.2053 23.0625 43.6875C23.0625 43.1697 23.4822 42.75 24 42.75C24.5178 42.75 24.9375 43.1697 24.9375 43.6875Z" fill="#73D614"/>
</svg>
