<svg width="48" height="48" viewBox="0 0 48 48" fill="none" xmlns="http://www.w3.org/2000/svg">
<g clip-path="url(#clip0)">
<path d="M38.7646 9.32925C39.0121 9.32925 39.2531 9.22987 39.4275 9.0555C39.6028 8.88018 39.7021 8.63831 39.7021 8.39175C39.7021 8.14518 39.6028 7.90331 39.4275 7.72893C39.2531 7.55456 39.0121 7.45425 38.7646 7.45425C38.5181 7.45425 38.2762 7.55456 38.1018 7.72893C37.9275 7.90331 37.8271 8.14518 37.8271 8.39175C37.8271 8.63925 37.9275 8.88018 38.1018 9.0555C38.2762 9.22987 38.5181 9.32925 38.7646 9.32925Z" fill="#73D614"/>
<path d="M47.935 29.3952C46.9912 26.8284 44.5191 25.1039 41.7835 25.1039C41.5728 25.1039 41.3605 25.1144 41.1481 25.1353C40.5641 24.4527 39.8473 23.899 39.0474 23.5064C40.6154 21.0696 41.4569 18.2321 41.4569 15.2671C41.4569 14.2239 41.351 13.1813 41.142 12.1682C41.0374 11.6611 40.542 11.3347 40.0345 11.4394C39.5274 11.544 39.201 12.0398 39.3056 12.5469C39.489 13.4357 39.5819 14.3509 39.5819 15.2671C39.5819 18.2242 38.6279 21.0367 36.8675 23.3523C36.8458 23.3779 36.8255 23.4046 36.8065 23.4326C36.4634 23.8769 36.0908 24.3028 35.6889 24.7073L31.3678 29.0552C31.3674 29.0557 31.3669 29.0561 31.3663 29.0567L27.3491 33.0989L29.6566 28.3753C31.8879 23.8077 33.0672 18.7064 33.0672 13.6229C33.0672 9.02025 30.9205 4.72162 27.4015 1.92984C30.4723 2.20425 33.3337 3.51816 35.5609 5.7C35.9308 6.06234 36.5244 6.05625 36.8867 5.68631C37.249 5.31647 37.243 4.72294 36.873 4.3605C34.0027 1.54856 30.2087 0 26.1899 0H21.849C13.5695 0 6.80832 6.62503 6.58782 14.8523C6.41804 14.8382 6.24761 14.8303 6.07707 14.8303C4.60567 14.8303 3.18273 15.3595 2.07048 16.3204C0.970231 17.2708 0.241606 18.5819 0.018762 20.0119C-0.0234255 20.2824 0.0548558 20.558 0.232981 20.7659C0.411012 20.974 0.671262 21.0938 0.945106 21.0938H7.73945C8.49854 22.9276 9.62326 24.6234 11.0202 26.029L19.066 34.125H18.4763C17.9585 34.125 17.5388 34.5447 17.5388 35.0625C17.5388 35.5803 17.9585 36 18.4763 36H19.7069V38.625H19.5194C19.0016 38.625 18.5819 39.0447 18.5819 39.5625V45.3378C18.5819 46.8057 19.7762 48 21.2441 48H26.7947C28.2626 48 29.4569 46.8057 29.4569 45.3378V39.5625C29.4569 39.0447 29.0372 38.625 28.5194 38.625H28.3319V36H29.5388C30.0565 36 30.4763 35.5803 30.4763 35.0625C30.4763 34.5447 30.0565 34.125 29.5388 34.125H28.9728L32.4201 30.6562H47.055C47.3615 30.6562 47.6485 30.5065 47.8239 30.2552C47.9992 30.0039 48.0407 29.6828 47.935 29.3952V29.3952ZM16.8479 13.8519C16.8474 13.7754 16.8467 13.6987 16.8467 13.6228C16.8467 9.06656 19.252 4.85025 23.082 2.50247V16.49C23.0206 16.4323 22.9582 16.3755 22.8941 16.3203C21.7819 15.3593 20.359 14.8302 18.8875 14.8302C18.5871 14.8302 18.2869 14.8522 17.9899 14.8961C17.6455 14.5067 17.2619 14.1573 16.8479 13.8519V13.8519ZM23.082 21.0938V33.7242L20.067 27.5523C19.0599 25.4905 18.2795 23.3227 17.7395 21.0938H23.082ZM31.1923 13.6229C31.1923 18.4228 30.0788 23.2395 27.9719 27.5524L24.9569 33.7243V2.50247C28.7871 4.85025 31.1923 9.06656 31.1923 13.6229V13.6229ZM20.6364 1.9305C17.3141 4.56666 15.2175 8.54597 14.9938 12.8561C14.1965 12.5645 13.3468 12.4089 12.4822 12.4089C11.0857 12.4089 9.72798 12.8144 8.56736 13.5448C9.36423 7.36603 14.3885 2.49394 20.6364 1.9305V1.9305ZM6.07707 16.7052C6.4277 16.7052 6.77786 16.7484 7.11761 16.8337C7.48464 16.9257 7.87098 16.7884 8.0972 16.4852C8.13283 16.4374 8.1707 16.3921 8.20764 16.3457C8.24214 16.3092 8.27298 16.2694 8.30129 16.2277C9.34342 14.9883 10.8494 14.2839 12.4824 14.2839C14.2252 14.2839 15.8235 15.0862 16.8675 16.4852C17.0937 16.7884 17.4803 16.9257 17.8471 16.8337C18.1869 16.7484 18.5369 16.7052 18.8876 16.7052C20.6129 16.7052 22.109 17.7139 22.7762 19.2188H16.575C16.5721 19.2188 16.5692 19.2188 16.5664 19.2188H2.18851C2.85564 17.714 4.35179 16.7052 6.07707 16.7052V16.7052ZM9.7907 21.0938H15.8136C16.3872 23.6097 17.2493 26.0558 18.3822 28.3752L20.6897 33.0988L12.3501 24.7073C11.2915 23.6423 10.4347 22.4305 9.7907 21.0938V21.0938ZM27.582 45.3379C27.582 45.7719 27.2289 46.1251 26.7948 46.1251H21.2442C20.8102 46.1251 20.457 45.7719 20.457 45.3379V40.5H27.582V45.3379ZM26.457 38.625H21.582V36H22.6924H25.3419C25.3433 36 25.3446 36.0002 25.346 36.0002C25.3471 36.0002 25.3481 36 25.3493 36H26.457V38.625ZM34.2836 28.7812L37.0189 26.029C37.3319 25.714 37.6287 25.387 37.9106 25.0504C38.7355 25.3825 39.457 25.9482 39.9804 26.6829C40.1921 26.9804 40.5573 27.128 40.9165 27.0606C41.2058 27.0064 41.4975 26.9789 41.7836 26.9789C43.2445 26.9789 44.5998 27.6675 45.4722 28.7812H34.2836Z" fill="#73D614"/>
</g>
<defs>
<clipPath id="clip0">
<rect width="48" height="48" fill="white"/>
</clipPath>
</defs>
</svg>
