<svg width="48" height="48" viewBox="0 0 48 48" fill="none" xmlns="http://www.w3.org/2000/svg">
<path d="M47.0625 5.625H42.375V2.8125C42.375 1.2616 41.1134 0 39.5625 0H28.2188C27.7009 0 27.2812 0.419678 27.2812 0.9375C27.2812 1.45532 27.7009 1.875 28.2188 1.875H39.5625C40.0796 1.875 40.5 2.29541 40.5 2.8125V10.3125C40.5 10.8296 40.0796 11.25 39.5625 11.25H8.4375C7.92041 11.25 7.5 10.8296 7.5 10.3125V2.8125C7.5 2.29541 7.92041 1.875 8.4375 1.875H19.7812C20.2991 1.875 20.7188 1.45532 20.7188 0.9375C20.7188 0.419678 20.2991 0 19.7812 0H8.4375C6.8866 0 5.625 1.2616 5.625 2.8125V5.625H0.9375C0.419678 5.625 0 6.04468 0 6.5625C0 7.08032 0.419678 7.5 0.9375 7.5H5.625V10.3125C5.625 11.8634 6.8866 13.125 8.4375 13.125H39.5625C41.1134 13.125 42.375 11.8634 42.375 10.3125V7.5H46.125V16.875H24C23.4822 16.875 23.0625 17.2947 23.0625 17.8125V25.875H21.1875C19.6366 25.875 18.375 27.1366 18.375 28.6875V30.5625C18.375 31.7845 19.1587 32.8268 20.25 33.2139V45.1875C20.25 46.7384 21.5116 48 23.0625 48H24.9375C26.4884 48 27.75 46.7384 27.75 45.1875V33.2139C28.8413 32.8268 29.625 31.7845 29.625 30.5625V28.6875C29.625 27.1366 28.3634 25.875 26.8125 25.875H24.9375V18.75H47.0625C47.5803 18.75 48 18.3303 48 17.8125V6.5625C48 6.04468 47.5803 5.625 47.0625 5.625ZM24.9375 46.125H23.0625C22.5454 46.125 22.125 45.7046 22.125 45.1875V33.375H25.875V45.1875C25.875 45.7046 25.4546 46.125 24.9375 46.125ZM27.75 28.6875V30.5625C27.75 31.0796 27.3296 31.5 26.8125 31.5H21.1875C20.6704 31.5 20.25 31.0796 20.25 30.5625V28.6875C20.25 28.1704 20.6704 27.75 21.1875 27.75H26.8125C27.3296 27.75 27.75 28.1704 27.75 28.6875Z" fill="#73D614"/>
<path d="M24.9375 0.9375C24.9375 1.45532 24.5178 1.875 24 1.875C23.4822 1.875 23.0625 1.45532 23.0625 0.9375C23.0625 0.419678 23.4822 0 24 0C24.5178 0 24.9375 0.419678 24.9375 0.9375Z" fill="#73D614"/>
</svg>
