<svg width="48" height="48" viewBox="0 0 48 48" fill="none" xmlns="http://www.w3.org/2000/svg">
<path d="M43.0004 20.085V19.0002C43.0004 17.346 41.6547 16.0002 40.0004 16.0002H30V10.9999C30 10.4476 29.5523 9.99985 29 9.99985H25.9999V7.00032C25.9999 6.44804 25.5521 6.00029 24.9998 6.00029H11.4149L9.70734 4.29282C9.31697 3.90235 8.68378 3.90235 8.29322 4.29282L2.58591 9.99985H1.00003C0.44775 9.99994 0 10.4476 0 10.9999V39C0 39.5522 0.44775 40 1.00003 40H5.10056C5.25103 40.7386 5.565 41.4184 6.00262 42H3.99994C3.44766 42 3 42.4478 3 43C3 43.5522 3.44766 44.0001 4.00003 44.0001H9.99975C10.0023 44.0001 10.0046 43.9997 10.0072 43.9997C12.4184 43.9962 14.4351 42.2772 14.8991 40.0001H29H33.1012C33.2517 40.7387 33.5658 41.4185 34.0034 42.0001H32.0006C31.4484 42.0001 31.0006 42.4478 31.0006 43.0001C31.0006 43.5524 31.4483 44.0002 32.0006 44.0002H38.0003C38.0029 44.0002 38.0053 43.9998 38.0078 43.9998C40.4191 43.9963 42.4357 42.2773 42.8998 40.0002H47C47.5523 40.0002 48 39.5525 48 39.0002V30.0001V25.9999C48 23.0324 45.834 20.5628 43.0004 20.085ZM23.9999 8.00035V9.99994H15.4147L13.415 8.00035H23.9999V8.00035ZM9.00028 6.4141L10.2929 7.70663C10.2934 7.7071 10.2939 7.70766 10.2944 7.70813L12.5862 9.99994H5.41444L9.00028 6.4141ZM9.99994 41.9998C8.34563 41.9998 6.99984 40.6541 6.99984 39C6.99984 37.3457 8.34563 35.9998 9.99994 35.9998C11.6541 35.9998 12.9998 37.3457 12.9998 39C12.9997 40.6541 11.654 41.9998 9.99994 41.9998ZM27.9999 17.0003V34.0001H21.199C20.6468 34.0001 20.199 34.4479 20.199 35.0002C20.199 35.5524 20.6467 36.0002 21.199 36.0002H27.9999V38.0002H14.8991C14.4346 35.7205 12.4145 34 9.99994 34C7.58541 34 5.565 35.7206 5.10047 38.0002H1.99997V22.0001H5.99981C6.552 22.0001 6.99984 21.5525 6.99984 21.0001C6.99984 20.4478 6.55209 20.0001 5.99981 20.0001H1.99997V18.0002H13.9997C14.552 18.0002 14.9997 17.5525 14.9997 17.0002C14.9997 16.4479 14.5521 16.0001 13.9997 16.0001H1.99997V11.9997H2.99934C2.99991 11.9997 3.00047 11.9997 3.00094 11.9997H27.9999V17.0003ZM33.1012 38.0001H30V36.0001H34.0032C33.5655 36.5818 33.2516 37.2615 33.1012 38.0001ZM41.0003 39.0033C40.9986 40.656 39.6535 41.9998 38.0005 41.9998C36.3463 41.9998 35.0004 40.6541 35.0004 39C35.0004 37.3482 36.3421 36.0042 37.9928 36H38.0003C38.0013 36 38.0021 35.9999 38.003 35.9999C39.6549 36.0012 40.9986 37.3448 41.0003 38.9968C41.0003 38.9979 41.0002 38.9989 41.0002 39C41.0002 39.0011 41.0003 39.0022 41.0003 39.0033ZM46 38.0001H42.8998C42.4352 35.7204 40.4151 33.9999 38.0005 33.9999C37.9979 33.9999 37.9954 34.0001 37.9928 34.0001H29.9999V18.0003H40.0004C40.5518 18.0003 41.0004 18.4489 41.0004 19.0003V20.0003H34.0005C33.4483 20.0003 33.0005 20.4479 33.0005 21.0003V30.0001C33.0005 30.5524 33.4482 31.0001 34.0005 31.0001H46V38.0001V38.0001ZM37.0006 22.0001V29H35.0005V22.0001H37.0006ZM46 29H39.0006V22.0001H42.0005C44.2058 22.0001 46 23.7943 46 25.9998V29Z" fill="#73D614"/>
<path d="M17.2871 36.0001H17.9113C18.4635 36.0001 18.9114 35.5523 18.9114 35.0001C18.9114 34.4478 18.4636 34 17.9113 34H17.2871C16.7349 34 16.2871 34.4478 16.2871 35.0001C16.2871 35.5523 16.735 36.0001 17.2871 36.0001Z" fill="#73D614"/>
<path d="M17.2871 18.0003H17.9113C18.4635 18.0003 18.9114 17.5526 18.9114 17.0003C18.9114 16.448 18.4636 16.0002 17.9113 16.0002H17.2871C16.7349 16.0002 16.2871 16.4479 16.2871 17.0003C16.2872 17.5525 16.735 18.0003 17.2871 18.0003Z" fill="#73D614"/>
</svg>
